<svg width="106" height="76" viewBox="0 0 106 76" fill="none" xmlns="http://www.w3.org/2000/svg">
<path d="M30.0176 69.42L34.0176 75.79C34.0176 75.79 51.0176 60.18 67.8076 64.59C67.7776 64.57 52.6576 51.75 30.0176 69.42Z" fill="#FF725E"/>
<path d="M67.7776 64.57C67.7776 64.57 80.2276 51.05 98.4876 54.13L103.488 54.88L101.908 52.01C101.908 52.01 70.1176 41.13 67.7776 64.57Z" fill="#FF725E"/>
<path d="M41.4978 18.98C41.4978 18.98 16.5578 14.69 0.217773 23.54L26.2178 72.42C26.2178 72.42 47.4778 51.93 67.8178 64.55L41.4978 18.98Z" fill="#F5F5F5"/>
<path d="M41.4977 18.98C41.549 19.0433 41.5958 19.1101 41.6377 19.18L42.0077 19.8L43.4477 22.23L48.8477 31.49L67.9677 64.49C67.9915 64.5319 68.0009 64.5804 67.9945 64.6282C67.988 64.6759 67.9661 64.7203 67.932 64.7543C67.8979 64.7884 67.8536 64.8104 67.8059 64.8168C67.7581 64.8232 67.7096 64.8138 67.6677 64.79C64.7362 62.9771 61.4897 61.7321 58.0977 61.12C56.3161 60.8315 54.5121 60.7043 52.7077 60.74C50.8516 60.8216 49.0054 61.0558 47.1877 61.44C39.504 63.3282 32.4152 67.1098 26.5677 72.44L26.3477 72.64C26.3252 72.6639 26.2981 72.683 26.268 72.696C26.2379 72.709 26.2055 72.7158 26.1727 72.7158C26.1399 72.7158 26.1074 72.709 26.0773 72.696C26.0472 72.683 26.0201 72.6639 25.9977 72.64V72.59L0.0276783 23.64C0.0138903 23.6173 0.00500531 23.592 0.00158579 23.5657C-0.00183374 23.5394 0.000290677 23.5127 0.00782663 23.4873C0.0153626 23.4618 0.0281424 23.4383 0.0453404 23.4181C0.0625383 23.3979 0.0837722 23.3815 0.10768 23.37C5.31925 20.7701 10.9428 19.0952 16.7277 18.42C21.1422 17.8768 25.5927 17.6829 30.0377 17.84C33.7177 17.97 36.5877 18.26 38.5277 18.5C39.5277 18.62 40.2477 18.73 40.7477 18.82L41.3177 18.92H41.4977H41.3077L40.7377 18.85C40.2377 18.79 39.4977 18.69 38.5177 18.59C36.5177 18.39 33.6977 18.14 30.0277 18.05C25.6003 17.9274 21.1701 18.1514 16.7777 18.72C11.0406 19.4254 5.46865 21.117 0.307677 23.72L0.387679 23.45L26.3877 72.33L25.9977 72.26L26.2177 72.06C29.2496 69.3507 32.5852 67.0017 36.1577 65.06C39.5843 63.1722 43.2607 61.7784 47.0777 60.92C48.924 60.5253 50.801 60.291 52.6877 60.22C54.5225 60.1777 56.3573 60.3083 58.1677 60.61C61.6129 61.2439 64.9094 62.5157 67.8877 64.36L67.5777 64.66L48.6677 31.66L43.3477 22.32L41.9577 19.84C41.8077 19.56 41.6877 19.35 41.6077 19.19C41.5661 19.1227 41.5294 19.0525 41.4977 18.98Z" fill="#263238"/>
<path d="M80.6976 8.95001C80.6976 8.95001 61.8376 -3.04999 41.8176 18.95L68.0976 64.54C68.0976 64.54 73.4576 46.04 104.838 52.47L80.6976 8.95001Z" fill="#F5F5F5"/>
<path d="M80.6978 8.94999C80.7492 9.00736 80.793 9.07124 80.8278 9.13999C80.9078 9.28999 81.0278 9.47999 81.1678 9.72999L82.4978 12.05L87.4978 20.89L105.028 52.42C105.042 52.4442 105.051 52.471 105.055 52.4988C105.058 52.5266 105.056 52.5548 105.049 52.5819C105.042 52.6089 105.029 52.6342 105.011 52.6562C104.994 52.6782 104.972 52.6965 104.948 52.71C104.899 52.7285 104.846 52.7285 104.798 52.71L100.128 51.94C99.3302 51.8045 98.5256 51.7144 97.7178 51.67L95.2578 51.47C94.4231 51.4 93.5849 51.3799 92.7478 51.41L90.2178 51.42C89.3578 51.42 88.5078 51.59 87.6478 51.67C86.7799 51.7412 85.9179 51.8715 85.0678 52.06L82.4978 52.64L79.9678 53.53C79.136 53.8656 78.3217 54.2427 77.5278 54.66C77.1153 54.8478 76.7204 55.0721 76.3478 55.33L75.1978 56.07C74.4378 56.58 73.7578 57.2 73.0478 57.77C72.3779 58.3978 71.7468 59.0657 71.1578 59.77C69.9473 61.1914 68.9992 62.8167 68.3578 64.57C68.3352 64.6323 68.2888 64.6831 68.2288 64.7112C68.1688 64.7393 68.1001 64.7425 68.0378 64.72C67.9825 64.7005 67.9362 64.6613 67.9078 64.61L66.8478 62.78C57.5578 46.63 48.8478 31.58 41.6578 19.01C41.6337 18.9728 41.6208 18.9293 41.6208 18.885C41.6208 18.8406 41.6337 18.7972 41.6578 18.76C45.627 14.2659 50.4684 10.6255 55.8878 8.05999C60.0929 6.14028 64.7028 5.27528 69.3178 5.53999C72.2654 5.71601 75.1657 6.36426 77.9078 7.45999C78.6255 7.75477 79.3265 8.0886 80.0078 8.45999L80.5278 8.75999L80.6878 8.88L80.5078 8.78999L79.9778 8.52C79.5078 8.29 78.8078 7.94999 77.8678 7.58999C74.3595 6.25465 70.6191 5.63655 66.8677 5.77224C63.1164 5.90794 59.4304 6.79468 56.0278 8.38C50.6697 10.9524 45.8872 14.5818 41.9678 19.05V18.81L67.2178 62.61L68.3178 64.42L67.8578 64.48C68.5189 62.656 69.4973 60.9633 70.7478 59.48C71.3579 58.7566 72.0055 58.0657 72.6878 57.41C73.4278 56.82 74.1178 56.18 74.8978 55.67L76.0678 54.91C76.4507 54.6487 76.8555 54.4212 77.2778 54.23C78.1178 53.84 78.9078 53.37 79.7678 53.07L82.3378 52.18L84.9578 51.59C85.8204 51.3958 86.6961 51.2655 87.5778 51.2C88.4478 51.12 89.3078 50.96 90.1678 50.95H92.7378C93.5815 50.9098 94.427 50.9298 95.2678 51.01L97.7478 51.22C98.5626 51.2589 99.3743 51.3491 100.178 51.49L104.878 52.28L104.648 52.6C97.4778 39.6 91.4878 28.71 87.2678 21.04C85.1778 17.23 83.5278 14.21 82.3978 12.13L81.1178 9.77C80.9878 9.51 80.8778 9.31 80.7978 9.16C80.7178 9.01 80.6978 8.94999 80.6978 8.94999Z" fill="#263238"/>
<path d="M7.21777 0.0399933L35.3478 54.19C35.3478 54.19 58.1978 53.19 67.8778 64.33L41.8178 18.98C41.8178 18.98 26.5378 0.0399933 7.21777 0.0399933Z" fill="#F5F5F5"/>
<path d="M7.21777 0.0399933H7.93777L10.0978 0.130005C10.3378 0.130005 10.5978 0.130005 10.8578 0.130005L11.6878 0.270004L13.5678 0.580002C14.2961 0.70075 15.0147 0.874535 15.7178 1.09999C16.5327 1.29535 17.3371 1.53234 18.1278 1.81C24.8478 4.05 33.8678 9.47 41.9678 18.81L68.0678 64.13C68.1006 64.1871 68.1095 64.2548 68.0927 64.3185C68.0758 64.3822 68.0345 64.4366 67.9778 64.47C67.9352 64.5041 67.8823 64.5226 67.8278 64.5226C67.7732 64.5226 67.7203 64.5041 67.6778 64.47L66.5778 63.37C64.4864 61.3622 62.0465 59.7526 59.3778 58.62C56.7928 57.4644 54.0951 56.5797 51.3278 55.98C46.0769 54.8149 40.7051 54.2845 35.3278 54.4C35.2853 54.4004 35.2434 54.3895 35.2065 54.3684C35.1696 54.3473 35.139 54.3168 35.1178 54.28C26.9178 38.38 19.9178 24.79 14.9478 15.17C12.5278 10.42 10.5878 6.62 9.21777 4C8.56777 2.73 8.05776 1.74 7.70776 1L7.32777 0.25L7.20776 0C7.2675 0.0842355 7.3178 0.174783 7.35777 0.270004L7.77776 1.03999L9.35777 4.03999L15.2178 15.26L35.5178 54.08L35.3078 53.96C40.721 53.8289 46.1302 54.3528 51.4178 55.52C54.2145 56.1276 56.9419 57.0188 59.5578 58.18C62.279 59.3414 64.7661 60.9882 66.8978 63.04L68.0378 64.16L67.6278 64.45C57.9578 47.6 49.0078 31.98 41.6278 19.09C38.0128 14.8703 33.8763 11.127 29.3178 7.95C25.8388 5.49239 22.0447 3.5146 18.0378 2.06999C17.2506 1.78618 16.4496 1.54254 15.6378 1.34C14.9421 1.10743 14.2302 0.926938 13.5078 0.800003L11.6378 0.459991L10.8278 0.309998L10.0878 0.25L7.21777 0.0399933Z" fill="#263238"/>
</svg>
