<svg width="21" height="21" viewBox="0 0 21 21" fill="none" xmlns="http://www.w3.org/2000/svg">
<g clip-path="url(#clip0)">
<path d="M3.07617 21H17.9238C19.62 21 21 19.6201 21 17.9239V3.0762C21 1.37998 19.62 3.05176e-05 17.9238 3.05176e-05H3.07617C1.37995 3.05176e-05 0 1.37998 0 3.0762V17.9239C0 19.6201 1.37995 21 3.07617 21ZM1.23047 3.0762C1.23047 2.0585 2.05847 1.2305 3.07617 1.2305H17.9238C18.9415 1.2305 19.7695 2.0585 19.7695 3.0762V17.9239C19.7695 18.9416 18.9415 19.7696 17.9238 19.7696H3.07617C2.05847 19.7696 1.23047 18.9416 1.23047 17.9239V3.0762Z" fill="white"/>
<path d="M10.5 16.0371C13.5531 16.0371 16.0371 13.5531 16.0371 10.5C16.0371 7.44693 13.5531 4.96292 10.5 4.96292C7.4469 4.96292 4.96289 7.44693 4.96289 10.5C4.96289 13.5531 7.4469 16.0371 10.5 16.0371ZM10.5 6.19339C12.8747 6.19339 14.8066 8.12529 14.8066 10.5C14.8066 12.8748 12.8747 14.8067 10.5 14.8067C8.12526 14.8067 6.19336 12.8748 6.19336 10.5C6.19336 8.12529 8.12526 6.19339 10.5 6.19339Z" fill="white"/>
<path d="M16.6523 6.19339C17.67 6.19339 18.498 5.36539 18.498 4.34769C18.498 3.32999 17.67 2.50198 16.6523 2.50198C15.6346 2.50198 14.8066 3.32999 14.8066 4.34769C14.8066 5.36539 15.6346 6.19339 16.6523 6.19339ZM16.6523 3.73245C16.9915 3.73245 17.2676 4.00851 17.2676 4.34769C17.2676 4.68687 16.9915 4.96292 16.6523 4.96292C16.3132 4.96292 16.0371 4.68687 16.0371 4.34769C16.0371 4.00851 16.3132 3.73245 16.6523 3.73245Z" fill="white"/>
</g>
<defs>
<clipPath id="clip0">
<rect width="21" height="21" fill="white"/>
</clipPath>
</defs>
</svg>
