<svg width="87" height="69" viewBox="0 0 87 69" fill="none" xmlns="http://www.w3.org/2000/svg">
<path d="M42.7015 60.5668C57.0732 60.5668 68.7237 48.9162 68.7237 34.5445C68.7237 20.1728 57.0732 8.52228 42.7015 8.52228C28.3298 8.52228 16.6792 20.1728 16.6792 34.5445C16.6792 48.9162 28.3298 60.5668 42.7015 60.5668Z" fill="#FF725E"/>
<g opacity="0.3">
<path opacity="0.3" d="M39.3215 42.6618C39.3241 43.5043 39.0764 44.3287 38.61 45.0303C38.1435 45.7319 37.4792 46.2792 36.7012 46.6029C35.9233 46.9265 35.0668 47.0118 34.2403 46.8481C33.4139 46.6843 32.6546 46.2789 32.0588 45.6831C31.4631 45.0873 31.0576 44.3281 30.8939 43.5016C30.7301 42.6751 30.8155 41.8186 31.1391 41.0407C31.4627 40.2628 32.01 39.5985 32.7117 39.132C33.4133 38.6655 34.2376 38.4178 35.0802 38.4204C36.204 38.4239 37.2808 38.8718 38.0754 39.6665C38.8701 40.4611 39.3181 41.538 39.3215 42.6618Z" fill="white"/>
</g>
<g opacity="0.3">
<path opacity="0.3" d="M33.3186 30.4206C33.3212 30.9116 33.1779 31.3922 32.907 31.8017C32.6362 32.2112 32.2498 32.531 31.797 32.7207C31.3441 32.9104 30.8452 32.9613 30.3633 32.8672C29.8815 32.773 29.4384 32.5379 29.0904 32.1916C28.7423 31.8454 28.5048 31.4036 28.4081 30.9222C28.3114 30.4409 28.3597 29.9417 28.547 29.4878C28.7343 29.034 29.0521 28.646 29.4601 28.3729C29.8681 28.0999 30.3481 27.9541 30.839 27.9541C31.4944 27.9541 32.1231 28.2136 32.5877 28.6758C33.0524 29.1379 33.3151 29.7653 33.3186 30.4206Z" fill="white"/>
</g>
<path d="M17.4493 40.8739C17.5668 41.3307 -4.82748 62.8114 0.953791 67.3921C6.73506 71.9727 30.9694 60.2275 51.7063 43.5101C72.4432 26.7927 91.3139 6.48643 86.133 1.10972C80.952 -4.267 55.0863 11.6413 55.0863 11.6413L58.1793 13.6249C58.1793 13.6249 73.8396 3.58928 78.7726 7.47826C83.7056 11.3672 69.6374 26.5839 49.7096 41.1219C29.7819 55.6599 10.5588 65.8391 7.59639 61.8587C4.63398 57.8784 18.6891 44.6063 18.6891 44.6063L17.4493 40.8739Z" fill="#FF725E"/>
<g opacity="0.3">
<path opacity="0.3" d="M17.4493 40.8739C17.5668 41.3307 -4.82748 62.8114 0.953791 67.3921C6.73506 71.9727 30.9694 60.2275 51.7063 43.5101C72.4432 26.7927 91.3139 6.48643 86.133 1.10972C80.952 -4.267 55.0863 11.6413 55.0863 11.6413L58.1793 13.6249C58.1793 13.6249 73.8396 3.58928 78.7726 7.47826C83.7056 11.3672 69.6374 26.5839 49.7096 41.1219C29.7819 55.6599 10.5588 65.8391 7.59639 61.8587C4.63398 57.8784 18.6891 44.6063 18.6891 44.6063L17.4493 40.8739Z" fill="black"/>
</g>
<g opacity="0.3">
<path opacity="0.3" d="M28.3593 16.2088C28.5681 16.4568 26.8063 17.9576 24.8097 20.9592C22.1607 24.816 20.6996 29.3642 20.6068 34.0422C20.514 38.7201 21.7937 43.3228 24.2876 47.2816C26.1669 50.3745 27.8634 51.9405 27.6416 52.1755C27.4197 52.4104 25.423 51.1575 23.1001 48.0776C21.7584 46.2756 20.6939 44.2829 19.9419 42.1659C18.0376 36.896 18.1539 31.1074 20.2682 25.9183C21.1006 23.8268 22.2446 21.8733 23.6612 20.1239C26.1016 17.1485 28.2419 16.0261 28.3593 16.2088Z" fill="white"/>
</g>
</svg>
