<svg width="81" height="158" viewBox="0 0 81 158" fill="none" xmlns="http://www.w3.org/2000/svg">
<path d="M44.7451 136.35C43.8851 132.95 46.1351 129.55 48.6451 127.1C51.1551 124.65 54.1451 122.46 55.4651 119.21C57.5951 113.95 54.8051 107.1 58.4651 102.72C60.5851 100.14 64.3851 99.3 66.2651 96.54C67.1412 95.0185 67.7246 93.3463 67.9851 91.61C70.0285 82.8531 74.3871 74.8059 80.6051 68.31C80.9925 76.12 79.2651 83.8899 75.6051 90.8C74.1351 93.56 72.3351 96.25 71.8451 99.34C71.0251 104.34 73.8451 109.53 72.5451 114.45C71.0951 120.07 64.7551 123.81 64.4151 129.6C64.1351 134.51 68.4151 138.83 68.0351 143.73C67.7721 145.812 67.0143 147.801 65.8251 149.53C61.9051 155.78 56.3351 160.09 47.9051 159.9L37.5651 160.2L44.7451 136.35Z" fill="#FF725E"/>
<g opacity="0.3">
<path opacity="0.3" d="M44.7451 136.35C43.8851 132.95 46.1351 129.55 48.6451 127.1C51.1551 124.65 54.1451 122.46 55.4651 119.21C57.5951 113.95 54.8051 107.1 58.4651 102.72C60.5851 100.14 64.3851 99.3 66.2651 96.54C67.1412 95.0185 67.7246 93.3463 67.9851 91.61C70.0285 82.8531 74.3871 74.8059 80.6051 68.31C80.9925 76.12 79.2651 83.8899 75.6051 90.8C74.1351 93.56 72.3351 96.25 71.8451 99.34C71.0251 104.34 73.8451 109.53 72.5451 114.45C71.0951 120.07 64.7551 123.81 64.4151 129.6C64.1351 134.51 68.4151 138.83 68.0351 143.73C67.7721 145.812 67.0143 147.801 65.8251 149.53C61.9051 155.78 56.3351 160.09 47.9051 159.9L37.5651 160.2L44.7451 136.35Z" fill="black"/>
</g>
<path d="M35.4651 160.46C34.5179 160.603 33.5528 160.576 32.6151 160.38C31.4726 160.205 30.3504 159.917 29.2651 159.52C27.768 158.986 26.3692 158.209 25.1251 157.22C24.3788 156.614 23.7976 155.83 23.4351 154.94C23.1286 153.938 22.9702 152.897 22.9651 151.85C22.9496 150.73 22.8762 149.612 22.7451 148.5C22.55 147.319 22.1253 146.188 21.4951 145.17C20.2951 143.02 18.2751 140.99 17.6451 138.07C17.0151 135.15 17.4751 132.07 17.9751 129.02C18.4751 125.97 18.9751 122.54 17.7851 119.3C16.5951 116.06 14.4451 113.13 13.3351 109.48C12.2251 105.83 12.7751 101.84 12.5551 97.93C12.498 95.9462 12.0529 93.9928 11.2451 92.18C10.4151 90.35 9.24509 88.62 8.37509 86.69C6.56509 82.78 6.26509 78.37 5.78509 74.04C5.55509 71.86 5.31509 69.65 5.08509 67.43C4.94295 65.1904 4.56759 62.9717 3.96509 60.81C3.2832 58.6269 2.47176 56.4865 1.53509 54.4C1.04786 53.3187 0.653113 52.198 0.355086 51.05C0.184897 49.8699 0.0780775 48.6816 0.0350866 47.49C-0.0628107 45.1019 0.0442478 42.7098 0.355086 40.34C0.645086 37.96 1.09509 35.59 1.35509 33.2C1.35509 33.06 1.35509 32.92 1.35509 32.79L1.40509 32.32L1.82508 32.53C4.01393 33.6552 5.91069 35.2746 7.36508 37.26C8.78842 39.1957 9.9298 41.3236 10.7551 43.58C12.4551 48.03 13.0451 52.69 13.8951 57.13C14.7451 61.57 15.8151 65.96 18.0651 69.66C19.1951 71.51 20.5551 73.2 21.7451 75C23.0108 76.7574 23.8745 78.7716 24.2751 80.9C24.8551 85.28 22.4251 89.11 22.9051 92.98C23.1551 94.8864 23.8097 96.7173 24.8251 98.35C25.7551 100.01 26.8251 101.54 27.8851 103.09C28.9481 104.595 29.8687 106.195 30.6351 107.87C31.3668 109.513 31.797 111.275 31.9051 113.07C32.1351 116.56 31.6251 119.86 31.9051 122.99C32.1715 125.963 33.021 128.855 34.4051 131.5C35.6351 134.05 37.0151 136.36 38.1651 138.59C38.7391 139.666 39.2564 140.77 39.7151 141.9C40.1282 142.955 40.4266 144.051 40.6051 145.17C40.8894 147.126 40.8894 149.114 40.6051 151.07C40.3191 153.803 39.2806 156.402 37.6051 158.58C37.3529 158.905 37.0717 159.206 36.7651 159.48C36.5606 159.695 36.3325 159.886 36.0851 160.05L35.4951 160.46C36.2317 159.867 36.9023 159.197 37.4951 158.46C39.1001 156.279 40.0849 153.705 40.3451 151.01C40.5893 149.075 40.5556 147.115 40.2451 145.19C40.0592 144.094 39.7575 143.022 39.3451 141.99C38.9151 140.92 38.3451 139.84 37.7951 138.73C36.6251 136.52 35.2351 134.22 33.9751 131.65C32.5518 128.961 31.6718 126.019 31.3851 122.99C31.1251 119.8 31.6251 116.49 31.3851 113.08C31.2788 111.354 30.8656 109.661 30.1651 108.08C29.4034 106.437 28.4929 104.867 27.4451 103.39C26.4451 101.85 25.3051 100.31 24.3451 98.62C23.3106 96.9111 22.6495 95.0026 22.4051 93.02C21.9351 88.89 24.3451 85.02 23.7451 80.97C23.3507 78.9378 22.5105 77.0184 21.2851 75.35C20.1151 73.58 18.7451 71.89 17.5851 70C15.2651 66.19 14.1451 61.73 13.3151 57.26C12.4851 52.79 11.8651 48.18 10.1951 43.82C9.39222 41.6239 8.28109 39.5532 6.89509 37.67C5.50193 35.771 3.68786 34.2205 1.59508 33.14L2.07508 32.87L2.02508 33.29C1.74508 35.71 1.30508 38.08 1.02508 40.43C0.714493 42.7663 0.607424 45.1252 0.705085 47.48C0.765085 48.63 0.835084 49.84 1.00508 50.93C1.30133 52.0344 1.68247 53.1143 2.14509 54.16C3.09292 56.2693 3.91437 58.4331 4.60509 60.64C5.20618 62.8323 5.57817 65.081 5.71509 67.35C5.95509 69.57 6.18508 71.78 6.41508 73.96C6.88508 78.31 7.18509 82.65 8.92509 86.42C9.79509 88.3 10.9251 90.03 11.7851 91.93C12.6223 93.8232 13.0842 95.8608 13.1451 97.93C13.3451 101.93 12.8051 105.82 13.8651 109.36C14.9251 112.9 17.1551 115.82 18.2751 119.17C19.3951 122.52 18.9451 126.03 18.4351 129.12C17.9251 132.21 17.4351 135.26 18.0551 138.01C18.6751 140.76 20.5851 142.81 21.8151 145.01C22.4605 146.069 22.8919 147.245 23.0851 148.47C23.2136 149.595 23.2804 150.727 23.2851 151.86C23.2751 152.875 23.4167 153.886 23.7051 154.86C24.0459 155.71 24.5922 156.463 25.2951 157.05C26.4944 158.029 27.8455 158.806 29.2951 159.35C30.3625 159.763 31.4677 160.072 32.5951 160.27C33.2886 160.396 33.9906 160.469 34.6951 160.49C35.2151 160.45 35.4651 160.46 35.4651 160.46Z" fill="#263238"/>
<path d="M3.49512 38.5C3.54132 38.5987 3.57492 38.7029 3.59512 38.81C3.64512 39.06 3.72512 39.36 3.81512 39.74C4.01512 40.56 4.24513 41.79 4.62513 43.33C5.00513 44.87 5.95512 46.6 6.74512 48.74C7.53512 50.88 8.39512 53.32 9.15512 56.08C9.91512 58.84 10.6151 61.91 11.3251 65.19C11.9292 68.7117 13.0232 72.1315 14.5751 75.35C15.4151 77.03 16.3551 78.74 17.1051 80.6C17.8371 82.5115 18.3276 84.507 18.5651 86.54C19.0615 90.7482 19.7791 94.9273 20.7151 99.06C22.7151 107.54 24.7151 115.62 26.4251 122.98C28.1351 130.34 29.8451 136.92 31.2151 142.49C32.5851 148.06 33.6251 152.49 34.3851 155.65L35.2151 159.24C35.2951 159.62 35.3651 159.93 35.4151 160.18C35.4262 160.286 35.4262 160.394 35.4151 160.5C35.3643 160.402 35.3273 160.298 35.3051 160.19L35.0351 159.27C34.8051 158.41 34.4851 157.22 34.0351 155.71L30.6551 142.6C29.2551 137.04 27.5851 130.44 25.7351 123.13C23.8851 115.82 22.0151 107.69 19.9651 99.2C19.0539 95.0365 18.3662 90.8271 17.9051 86.59C17.6875 84.6049 17.2171 82.6558 16.5051 80.79C15.7851 78.98 14.8551 77.28 14.0151 75.58C12.4698 72.3361 11.3828 68.8931 10.7851 65.35C10.0951 62.06 9.44512 59 8.70512 56.25C7.96512 53.5 7.18513 51.03 6.39513 48.91C5.60513 46.79 4.75513 45.02 4.39513 43.43C4.03513 41.84 3.85512 40.64 3.70512 39.81C3.63512 39.43 3.58512 39.11 3.54512 38.86C3.51155 38.743 3.49472 38.6218 3.49512 38.5Z" fill="#263238"/>
<path d="M33.6351 160.48C26.9051 156.43 25.0351 144.24 27.8951 136.92C30.7551 129.6 35.7251 122.92 36.5251 115.12C37.1451 109.12 35.2151 102.94 36.6451 97.12C38.5851 89.2 46.3551 83.12 46.3151 74.96C46.3151 70.39 43.7151 66.07 43.9451 61.5C44.2351 55.9 48.5551 51.5 51.2451 46.56C55.3651 39.03 55.6851 30.1 57.1251 21.64C58.5651 13.18 61.8451 4.12 69.3751 0C70.4451 7.2 72.3151 12.14 71.6651 21.88C71.4251 25.37 67.3251 32.05 66.7251 39.71C66.3751 44.29 66.1151 48.88 65.8151 53.47C65.5151 58.06 65.1951 62.47 63.5751 66.64C62.3351 69.83 60.3451 72.72 59.4151 76.02C57.6651 82.23 59.8851 88.97 58.4151 95.26C57.2151 100.59 53.4951 105.16 52.7051 110.56C51.6051 118.16 56.4751 126.08 53.9151 133.32C52.6451 136.91 49.6751 139.78 48.8151 143.49C48.1451 146.37 48.8151 149.42 48.2351 152.31C47.2351 156.97 38.3351 160.54 33.5851 160.23" fill="#FF725E"/>
<path d="M67.4751 7.08002C67.4884 7.21636 67.4884 7.35368 67.4751 7.49002C67.4751 7.79002 67.3851 8.18001 67.3151 8.67001C67.1551 9.67001 66.9751 11.23 66.6151 13.2C66.2551 15.17 65.1851 17.41 64.3551 20.09C63.5251 22.77 62.6051 25.86 61.8251 29.33C61.0451 32.8 60.3751 36.62 59.6751 40.74C58.9751 44.86 58.2051 49.35 56.1351 53.64C55.1351 55.79 54.1351 57.95 53.2951 60.24C52.5046 62.5996 52.0108 65.0484 51.8251 67.53C51.4199 72.8036 50.7289 78.0513 49.7551 83.25C47.6251 93.89 45.6051 104.03 43.7551 113.25L38.5951 137.69C37.1051 144.61 35.8951 150.22 35.0551 154.15C34.6251 156.06 34.2951 157.56 34.0551 158.62L33.7851 159.78C33.7572 159.913 33.717 160.044 33.6651 160.17C33.6538 160.037 33.6538 159.903 33.6651 159.77C33.7251 159.47 33.7951 159.08 33.8751 158.59C34.0851 157.52 34.3751 156.02 34.7551 154.1C35.5451 150.16 36.6851 144.53 38.0851 137.59C39.4851 130.65 41.2151 122.32 43.0851 113.12L49.0851 83.12C50.0496 77.94 50.7406 72.7127 51.1551 67.46C51.3473 64.926 51.858 62.4264 52.6751 60.02C53.5051 57.68 54.5951 55.51 55.5551 53.38C57.6151 49.16 58.3551 44.74 59.1051 40.63C59.8551 36.52 60.5251 32.63 61.3551 29.21C62.1851 25.79 63.0751 22.65 63.9851 19.97C64.8951 17.29 65.9251 15.06 66.3351 13.13C66.7451 11.2 66.9651 9.66001 67.1651 8.64001C67.2551 8.15001 67.3351 7.77 67.3851 7.47C67.4046 7.33781 67.4347 7.20741 67.4751 7.08002Z" fill="#263238"/>
</svg>
