<svg width="51" height="51" viewBox="0 0 51 51" fill="none" xmlns="http://www.w3.org/2000/svg">
<g filter="url(#filter0_f)">
<path d="M36.6574 37.1202C43.2081 30.8252 43.4153 20.4117 37.1202 13.861C30.8252 7.31036 20.4117 7.10315 13.861 13.3982C7.31037 19.6932 7.10314 30.1067 13.3982 36.6574C19.6932 43.2081 30.1067 43.4153 36.6574 37.1202Z" fill="#FF725E"/>
<path opacity="0.4" d="M30.6245 18.9784C30.6365 18.4486 30.8053 17.9341 31.1096 17.5002C31.414 17.0663 31.8401 16.7324 32.3342 16.5406C32.8283 16.3489 33.3682 16.3079 33.8855 16.423C34.4029 16.538 34.8745 16.8039 35.2408 17.1869C35.607 17.57 35.8515 18.053 35.9433 18.575C36.0351 19.097 35.97 19.6345 35.7564 20.1195C35.5427 20.6045 35.19 21.0153 34.7429 21.2999C34.2958 21.5845 33.7744 21.7301 33.2445 21.7184C32.8921 21.7119 32.5445 21.6358 32.2217 21.4943C31.8989 21.3528 31.6073 21.1488 31.3638 20.8941C31.1202 20.6394 30.9295 20.339 30.8026 20.0102C30.6757 19.6814 30.6152 19.3307 30.6245 18.9784Z" fill="black"/>
<path opacity="0.4" d="M35.9844 25.2384C35.9904 24.9276 36.0886 24.6255 36.2665 24.3705C36.4445 24.1155 36.6941 23.9191 36.9837 23.8062C37.2734 23.6932 37.5901 23.6688 37.8936 23.7361C38.1972 23.8033 38.4739 23.9592 38.6888 24.1839C38.9037 24.4086 39.047 24.692 39.1006 24.9983C39.1542 25.3045 39.1157 25.6198 38.9899 25.9041C38.8641 26.1884 38.6567 26.429 38.394 26.5953C38.1314 26.7617 37.8252 26.8463 37.5144 26.8384C37.3087 26.8345 37.1057 26.79 36.9173 26.7073C36.7289 26.6247 36.5586 26.5056 36.4164 26.3568C36.2742 26.2081 36.1628 26.0327 36.0887 25.8408C36.0145 25.6488 35.9791 25.4441 35.9844 25.2384Z" fill="black"/>
<path opacity="0.4" d="M33.8943 30.0384C33.9695 30.0384 34.044 30.0535 34.1133 30.0829C34.1826 30.1123 34.2452 30.1553 34.2975 30.2095C34.3498 30.2636 34.3906 30.3277 34.4175 30.398C34.4445 30.4683 34.457 30.5432 34.4543 30.6184C34.4491 30.7714 34.3847 30.9164 34.2746 31.0228C34.1645 31.1291 34.0174 31.1885 33.8643 31.1884C33.7122 31.1832 33.5683 31.1184 33.4635 31.0081C33.3587 30.8977 33.3016 30.7506 33.3043 30.5984C33.3056 30.5227 33.3219 30.448 33.3524 30.3787C33.3829 30.3094 33.4269 30.2468 33.4818 30.1947C33.5367 30.1425 33.6015 30.1019 33.6723 30.075C33.7431 30.0482 33.8186 30.0358 33.8943 30.0384Z" fill="black"/>
</g>
<defs>
<filter id="filter0_f" x="0" y="0" width="50.5184" height="50.5184" filterUnits="userSpaceOnUse" color-interpolation-filters="sRGB">
<feFlood flood-opacity="0" result="BackgroundImageFix"/>
<feBlend mode="normal" in="SourceGraphic" in2="BackgroundImageFix" result="shape"/>
<feGaussianBlur stdDeviation="1" result="effect1_foregroundBlur"/>
</filter>
</defs>
</svg>
