<svg width="133" height="251" viewBox="0 0 133 251" fill="none" xmlns="http://www.w3.org/2000/svg">
<path d="M74.9317 35.5822C72.7617 34.1322 69.7817 35.0122 67.6117 36.4622C65.4417 37.9122 63.6117 39.8922 61.1617 40.8322C56.6017 42.6022 50.6117 40.5022 47.0717 43.8322C44.8217 45.9722 44.5917 49.4922 42.8717 52.0822C39.9717 56.4422 33.0117 58.0822 32.4217 63.2822C32.0717 66.2822 34.4717 69.2222 37.4217 70.0722C38.9119 70.4219 40.4598 70.4476 41.9607 70.1474C43.4617 69.8472 44.8807 69.2281 46.1217 68.3322C49.1217 66.3322 51.4317 63.3322 54.8117 62.1922C58.1917 61.0522 62.5417 62.0022 65.2717 59.5922C68.0017 57.1822 67.5917 52.7322 69.5517 49.6522C70.7302 48.1042 72.1283 46.7364 73.7017 45.5922C75.1717 44.3222 76.5717 42.7522 76.8217 40.8222C77.0717 38.8922 76.2817 35.6022 74.9517 35.5322" fill="#F5F5F5"/>
<path d="M18.5815 248.032C18.7115 247.962 19.1115 248.362 19.4915 248.932C19.8715 249.502 20.0815 250.042 19.9615 250.122C19.8415 250.202 19.4415 249.802 19.0515 249.222C18.6615 248.642 18.4615 248.112 18.5815 248.032Z" fill="#263238"/>
<path d="M14.3018 239.012C14.8413 239.666 15.2458 240.421 15.4917 241.232C15.8868 241.98 16.1282 242.8 16.2018 243.642C15.2568 242.246 14.61 240.67 14.3018 239.012Z" fill="#263238"/>
<path d="M11.9815 229.292C12.6224 230.851 12.9322 232.527 12.8915 234.212C12.4924 233.466 12.2507 232.646 12.1815 231.802C11.9472 230.987 11.8792 230.134 11.9815 229.292Z" fill="#263238"/>
<path d="M11.6316 219.302C11.9484 220.956 11.9246 222.658 11.5617 224.302C11.3077 223.495 11.2293 222.642 11.3317 221.802C11.2537 220.957 11.3559 220.105 11.6316 219.302Z" fill="#263238"/>
<path d="M13.2017 209.472C13.2823 210.315 13.1904 211.166 12.9317 211.972C12.832 212.813 12.5669 213.625 12.1517 214.362C12.0714 213.519 12.1633 212.669 12.4217 211.862C12.5232 211.022 12.7882 210.21 13.2017 209.472Z" fill="#263238"/>
<path d="M16.8416 200.122C16.5077 201.767 15.8258 203.322 14.8416 204.682C14.9417 203.841 15.2104 203.028 15.6315 202.292C16.2015 201.022 16.7116 200.052 16.8416 200.122Z" fill="#263238"/>
<path d="M22.3517 191.782C22.0745 192.584 21.6392 193.322 21.0717 193.952C20.6216 194.666 20.0496 195.296 19.3817 195.812C19.2417 195.722 19.8217 194.752 20.6517 193.642C21.4817 192.532 22.2017 191.692 22.3517 191.782Z" fill="#263238"/>
<path d="M29.0716 184.382C29.1816 184.482 28.4916 185.382 27.5416 186.382C26.5916 187.382 25.7316 188.102 25.6216 188.012C25.5116 187.922 26.2016 187.012 27.1616 186.012C28.1216 185.012 28.9716 184.272 29.0716 184.382Z" fill="#263238"/>
<path d="M36.1116 177.262C36.2216 177.362 35.5116 178.262 34.5416 179.262C33.5716 180.262 32.7015 180.962 32.6015 180.862C32.5015 180.762 33.2016 179.862 34.1716 178.862C35.1416 177.862 36.0116 177.162 36.1116 177.262Z" fill="#263238"/>
<path d="M42.6917 169.722C42.3749 170.509 41.9021 171.223 41.3017 171.822C40.4217 172.902 39.6217 173.692 39.5117 173.592C39.8377 172.81 40.3094 172.098 40.9017 171.492C41.7717 170.472 42.5717 169.642 42.6917 169.722Z" fill="#263238"/>
<path d="M47.7917 161.142C47.7022 161.99 47.4144 162.806 46.9517 163.522C46.6343 164.315 46.1381 165.023 45.5017 165.592C45.6956 164.769 46.0342 163.987 46.5017 163.282C46.8076 162.501 47.2438 161.777 47.7917 161.142Z" fill="#263238"/>
<path d="M50.2017 151.472C50.3965 152.303 50.3794 153.17 50.1517 153.992C50.0941 154.846 49.8299 155.673 49.3817 156.402C49.3303 155.563 49.4182 154.722 49.6417 153.912C49.6958 153.074 49.8849 152.25 50.2017 151.472Z" fill="#263238"/>
<path d="M49.4815 141.542C49.9248 142.271 50.1792 143.1 50.2215 143.952C50.427 144.783 50.427 145.651 50.2215 146.482C49.9067 145.701 49.7242 144.873 49.6815 144.032C49.4805 143.218 49.4129 142.378 49.4815 141.542Z" fill="#263238"/>
<path d="M45.5518 132.392C45.6718 132.312 46.4018 133.182 47.0618 134.392C47.5382 135.103 47.8334 135.921 47.9218 136.772C47.3711 136.137 46.9255 135.418 46.6017 134.642C46.139 133.95 45.7849 133.191 45.5518 132.392Z" fill="#263238"/>
<path d="M38.5815 125.292C39.3968 125.548 40.1379 125.997 40.7415 126.602C41.8115 127.502 42.5115 128.402 42.4115 128.502C42.3115 128.602 41.4115 127.882 40.4115 127.002C39.4115 126.122 38.4915 125.412 38.5815 125.292Z" fill="#263238"/>
<path d="M29.4917 121.232C30.3436 121.18 31.1952 121.338 31.9717 121.692C32.8067 121.885 33.5801 122.284 34.2217 122.852C33.3848 122.758 32.5681 122.531 31.8017 122.182C30.9834 121.999 30.2022 121.678 29.4917 121.232Z" fill="#263238"/>
<path d="M19.5518 120.782C20.3171 120.4 21.1675 120.221 22.0218 120.262C22.8703 120.137 23.7367 120.226 24.5417 120.522C23.7295 120.733 22.8901 120.821 22.0518 120.782C21.2236 120.913 20.3799 120.913 19.5518 120.782Z" fill="#263238"/>
<path d="M10.3317 124.472C10.2417 124.352 11.1017 123.602 12.3317 122.942C13.0398 122.457 13.8651 122.17 14.7217 122.112C14.0699 122.64 13.3459 123.071 12.5716 123.392C11.8831 123.862 11.128 124.226 10.3317 124.472Z" fill="#263238"/>
<path d="M3.46167 131.652C3.6792 130.824 4.10227 130.064 4.69168 129.442C5.54168 128.332 6.42168 127.602 6.52168 127.702C6.62168 127.802 5.93167 128.702 5.10167 129.762C4.27167 130.822 3.58167 131.722 3.46167 131.652Z" fill="#263238"/>
<path d="M0.091541 140.992C-0.0656183 140.15 -0.000121951 139.281 0.281543 138.472C0.407488 137.619 0.751979 136.813 1.28154 136.132C1.25036 136.971 1.09188 137.801 0.811542 138.592C0.69622 139.424 0.453371 140.234 0.091541 140.992Z" fill="#263238"/>
<path d="M1.28163 150.842C0.75206 150.161 0.40757 149.355 0.281625 148.502C-0.00569385 147.694 -0.0746818 146.825 0.0816282 145.982C0.428308 146.745 0.667251 147.553 0.79162 148.382C1.07306 149.174 1.23812 150.003 1.28163 150.842Z" fill="#263238"/>
<path d="M6.35164 159.402C6.24164 159.502 5.41164 158.722 4.60164 157.582C4.03573 156.941 3.63419 156.173 3.43164 155.342C3.56164 155.272 4.22165 156.172 5.02165 157.282C5.57763 157.912 6.02688 158.628 6.35164 159.402Z" fill="#263238"/>
<path d="M13.7117 166.152C12.9041 165.881 12.1688 165.43 11.5617 164.832C10.4717 163.962 9.72167 163.112 9.82167 163.002C10.585 163.358 11.2817 163.841 11.8817 164.432C12.9517 165.292 13.8017 166.032 13.7117 166.152Z" fill="#263238"/>
<path d="M22.3816 171.122C20.7519 170.687 19.2322 169.914 17.9216 168.852C18.7562 168.996 19.5546 169.301 20.2716 169.752C21.0603 170.062 21.7781 170.528 22.3816 171.122Z" fill="#263238"/>
<path d="M31.9017 174.152C31.0531 174.249 30.1936 174.146 29.3918 173.852C28.5471 173.727 27.7448 173.401 27.0518 172.902C27.8943 172.915 28.7289 173.067 29.5218 173.352C30.3562 173.476 31.1621 173.747 31.9017 174.152Z" fill="#263238"/>
<path d="M41.8616 174.662C40.2369 175.161 38.5049 175.196 36.8616 174.762C37.6729 174.547 38.5151 174.473 39.3516 174.542C40.1891 174.443 41.0373 174.483 41.8616 174.662Z" fill="#263238"/>
<path d="M51.4817 172.092C50.1074 173.091 48.4771 173.677 46.7817 173.782C47.4867 173.322 48.2643 172.984 49.0817 172.782C49.8365 172.417 50.6482 172.183 51.4817 172.092Z" fill="#263238"/>
<path d="M59.8215 166.622C59.9215 166.732 59.1616 167.622 58.0516 168.422C57.4302 169.006 56.6798 169.434 55.8616 169.672C55.7816 169.542 56.6515 168.852 57.7415 168.012C58.3566 167.441 59.0588 166.972 59.8215 166.622Z" fill="#263238"/>
<path d="M66.3315 159.062C66.1001 159.882 65.6787 160.636 65.1015 161.262C64.2715 162.382 63.4415 163.152 63.3315 163.062C63.2215 162.972 63.8715 162.062 64.6915 160.952C65.5115 159.842 66.2015 158.982 66.3315 159.062Z" fill="#263238"/>
<path d="M70.6615 150.062C70.6585 150.916 70.4492 151.757 70.0515 152.512C69.5315 153.812 68.9215 154.772 68.7915 154.702C68.912 153.871 69.1723 153.066 69.5615 152.322C69.8017 151.514 70.1734 150.75 70.6615 150.062Z" fill="#263238"/>
<path d="M72.6017 140.272C72.8188 141.953 72.5841 143.662 71.9217 145.222C71.8939 143.547 72.1232 141.878 72.6017 140.272Z" fill="#263238"/>
<path d="M72.3416 130.282C72.6675 131.064 72.8243 131.906 72.8016 132.752C72.945 133.589 72.9212 134.445 72.7315 135.272C72.2621 133.65 72.1294 131.948 72.3416 130.272V130.282Z" fill="#263238"/>
<path d="M70.2015 120.522C70.6648 121.234 70.9748 122.034 71.1115 122.872C71.4124 123.663 71.5485 124.507 71.5115 125.352C71.0527 124.638 70.7432 123.839 70.6015 123.002C70.2998 122.212 70.1636 121.367 70.2015 120.522Z" fill="#263238"/>
<path d="M66.3416 111.282C66.4716 111.212 67.0715 112.172 67.6715 113.422C68.0946 114.16 68.3602 114.977 68.4515 115.822C67.4938 114.441 66.7801 112.905 66.3416 111.282Z" fill="#263238"/>
<path d="M61.4216 102.572C61.5516 102.492 62.2116 103.402 62.9116 104.572C63.3979 105.259 63.7382 106.039 63.9116 106.862C63.2892 106.299 62.783 105.62 62.4216 104.862C61.9433 104.171 61.6037 103.393 61.4216 102.572Z" fill="#263238"/>
<path d="M56.4617 93.8822C56.5917 93.8122 57.2317 94.7422 57.9017 95.9422C58.3849 96.6419 58.7248 97.4304 58.9017 98.2622C58.2894 97.6743 57.7999 96.9707 57.4617 96.1922C56.9726 95.4993 56.6322 94.7129 56.4617 93.8822Z" fill="#263238"/>
<path d="M52.5518 84.6822C53.457 86.1058 54.0532 87.7035 54.3018 89.3721C53.7725 88.7067 53.3907 87.9363 53.1817 87.1122C52.8088 86.3534 52.5944 85.5266 52.5518 84.6822Z" fill="#263238"/>
<path d="M50.8517 74.8522C51.146 75.6423 51.295 76.4791 51.2917 77.3222C51.4656 78.1441 51.496 78.9899 51.3817 79.8222C50.9879 79.0656 50.7821 78.2252 50.7817 77.3722C50.6086 76.5382 50.6325 75.6753 50.8517 74.8522Z" fill="#263238"/>
<path d="M51.6817 64.9022C51.7612 65.7397 51.7004 66.5846 51.5017 67.4022C51.466 68.2451 51.2797 69.0749 50.9517 69.8522C50.758 69.02 50.758 68.1544 50.9517 67.3222C51.0009 66.4692 51.251 65.64 51.6817 64.9022Z" fill="#263238"/>
<path d="M54.9417 55.4722C54.8145 56.3058 54.5438 57.111 54.1417 57.8522C53.8937 58.6571 53.5116 59.4143 53.0117 60.0922C53.2241 58.4056 53.8912 56.8086 54.9417 55.4722Z" fill="#263238"/>
<path d="M60.5117 47.1822C60.6217 47.2822 59.9617 48.1822 59.1217 49.2722C58.2817 50.3622 57.5717 51.2722 57.4517 51.1422C57.689 50.3213 58.1213 49.5699 58.7117 48.9522C59.5617 47.8522 60.4117 47.0922 60.5117 47.1822Z" fill="#263238"/>
<path d="M68.0217 40.6022C68.1017 40.7222 67.2317 41.4322 66.1517 42.2722C65.5387 42.8504 64.832 43.3204 64.0617 43.6622C63.9617 43.5522 64.7317 42.6622 65.8317 41.8622C66.4527 41.2761 67.203 40.8445 68.0217 40.6022Z" fill="#263238"/>
<path d="M76.9218 36.0822C76.2483 36.588 75.4944 36.9768 74.6917 37.2322C73.9594 37.644 73.1607 37.9249 72.3318 38.0621C72.2618 37.9321 73.2118 37.3122 74.4918 36.7622C75.2344 36.3413 76.0685 36.1079 76.9218 36.0822Z" fill="#263238"/>
<path d="M84.2017 34.2421C84.2017 34.3821 83.6917 34.6021 83.0217 34.7221C82.3517 34.8421 81.7717 34.8421 81.7417 34.7221C81.7117 34.6021 82.2417 34.3622 82.9217 34.2322C83.6017 34.1022 84.2017 34.1021 84.2017 34.2421Z" fill="#263238"/>
<path d="M104.582 4.80216C104.582 4.80216 116.322 -3.57784 132.582 1.80216C132.582 1.80216 133.912 15.2622 120.882 25.9622" fill="#FF725E"/>
<path d="M67.5518 29.6622C68.0518 30.4122 80.8018 50.9022 80.8018 50.9022L119.072 27.3222C120.651 26.3487 122.012 25.0577 123.066 23.5311C124.121 22.0045 124.847 20.2755 125.199 18.4537C125.55 16.6318 125.52 14.7568 125.109 12.9473C124.698 11.1379 123.916 9.43353 122.812 7.94216C120.761 5.17398 117.721 3.30293 114.326 2.71812C110.931 2.1333 107.441 2.87972 104.582 4.80216L67.5518 29.6622Z" fill="#FF725E"/>
<path d="M80.8017 50.9022L79.9417 65.3222C79.9417 65.3222 104.742 53.3222 98.5517 39.9622L80.8017 50.9022Z" fill="#263238"/>
<path d="M85.2816 17.7622C85.2816 17.7622 68.4616 10.3422 54.6216 21.2222L67.5516 29.6622L85.2816 17.7622Z" fill="#263238"/>
<path d="M85.2017 29.6722L61.2717 44.6722C61.2717 44.6722 62.0917 47.2522 62.7317 47.0322C63.3717 46.8122 81.2617 36.2322 87.0917 32.7822C87.3146 32.6496 87.5061 32.4704 87.6533 32.2568C87.8005 32.0433 87.8998 31.8005 87.9444 31.5451C87.9891 31.2896 87.978 31.0275 87.9119 30.7768C87.8459 30.526 87.7264 30.2925 87.5617 30.0922C87.2872 29.7464 86.8959 29.5128 86.4612 29.4355C86.0266 29.3581 85.5786 29.4423 85.2017 29.6722Z" fill="#263238"/>
<path d="M114.674 20.0792C115.643 15.9612 113.09 11.8374 108.972 10.8684C104.854 9.89952 100.73 12.4524 99.7615 16.5705C98.7925 20.6885 101.345 24.8123 105.463 25.7812C109.582 26.7501 113.705 24.1973 114.674 20.0792Z" fill="#FAFAFA"/>
<path d="M114.872 18.3222C114.812 18.3222 114.871 17.6422 114.531 16.4822C114.085 14.8399 113.099 13.3957 111.732 12.3822C110.803 11.6854 109.724 11.2161 108.582 11.0122C107.274 10.7792 105.929 10.8965 104.682 11.3522C103.287 11.8457 102.075 12.7484 101.202 13.9422C100.266 15.2109 99.7612 16.7458 99.7612 18.3222C99.7612 19.8985 100.266 21.4335 101.202 22.7022C102.066 23.8898 103.263 24.7946 104.642 25.3022C105.889 25.7574 107.234 25.8746 108.542 25.6422C109.684 25.4382 110.763 24.9689 111.691 24.2722C113.056 23.2564 114.042 21.8131 114.492 20.1722C114.802 19.0122 114.772 18.3222 114.832 18.3222C114.858 18.4878 114.858 18.6565 114.832 18.8222C114.829 19.2938 114.771 19.7635 114.661 20.2222C114.323 21.6783 113.569 23.005 112.492 24.0416C111.414 25.0781 110.06 25.78 108.592 26.0622C107.131 26.3481 105.618 26.2122 104.232 25.6704C102.845 25.1285 101.641 24.203 100.762 23.0022C99.755 21.6494 99.2114 20.0083 99.2114 18.3222C99.2114 16.6361 99.755 14.9949 100.762 13.6422C101.687 12.3776 102.973 11.4225 104.452 10.9022C105.691 10.4532 107.024 10.3268 108.325 10.535C109.627 10.7432 110.854 11.279 111.892 12.0922C113.324 13.1728 114.329 14.7237 114.732 16.4722C114.841 16.9308 114.899 17.4005 114.902 17.8722C114.914 18.0228 114.904 18.1745 114.872 18.3222Z" fill="#263238"/>
<path d="M124.202 23.4722C124.102 23.4722 123.992 21.9822 123.402 19.6522C123.053 18.2893 122.608 16.9527 122.072 15.6522C120.739 12.4775 118.857 9.56282 116.512 7.04217C115.551 6.01667 114.518 5.06092 113.422 4.18217C111.532 2.69217 110.222 1.97217 110.272 1.88217C110.605 1.99394 110.924 2.145 111.222 2.33217C111.589 2.5229 111.946 2.7332 112.292 2.96217C112.692 3.23217 113.162 3.51217 113.642 3.89217C114.791 4.73803 115.865 5.68153 116.852 6.71217C119.295 9.23253 121.218 12.2091 122.512 15.4722C123.04 16.7987 123.458 18.1667 123.762 19.5622C123.912 20.1522 123.972 20.7022 124.052 21.1822C124.118 21.5894 124.161 22.0001 124.182 22.4122C124.239 22.7627 124.246 23.1197 124.202 23.4722Z" fill="#263238"/>
<path d="M122.142 24.5322C122.042 24.5322 121.922 23.0222 121.322 20.6522C120.966 19.2693 120.515 17.9128 119.972 16.5922C119.29 14.9817 118.477 13.4298 117.542 11.9522C116.588 10.4882 115.518 9.10365 114.342 7.81215C113.367 6.7615 112.317 5.78232 111.202 4.88216C109.292 3.35216 107.962 2.61216 108.012 2.52216C108.363 2.63715 108.699 2.795 109.012 2.99215C109.381 3.18681 109.739 3.40388 110.082 3.64215C110.492 3.91215 110.972 4.21215 111.452 4.64215C112.604 5.49927 113.687 6.44551 114.692 7.47215C115.911 8.76776 117.012 10.17 117.982 11.6622C118.928 13.1682 119.742 14.7542 120.412 16.4022C120.947 17.7521 121.372 19.1434 121.682 20.5621C121.832 21.1621 121.892 21.7222 121.972 22.2022C122.045 22.6154 122.092 23.0329 122.112 23.4522C122.162 23.8099 122.172 24.1722 122.142 24.5322Z" fill="#263238"/>
</svg>
