<svg width="92" height="108" viewBox="0 0 92 108" fill="none" xmlns="http://www.w3.org/2000/svg">
<path fill-rule="evenodd" clip-rule="evenodd" d="M47.7772 6.64722C49.353 7.46993 50.8131 8.49735 52.1194 9.70272L56.7611 8.05649L61.1159 14.9282L57.6471 18.4202C58.1789 20.1188 58.4852 21.8798 58.5579 23.6582L63 25.7658L61.2157 33.6727H56.2995C55.472 35.2481 54.4399 36.7075 53.2299 38.0127L54.8895 42.6521L48.0018 47.0046L44.508 43.6498C42.8126 44.1803 41.0549 44.4864 39.2799 44.5602L37.1711 49L29.2228 47.2166V42.3029C27.645 41.4783 26.1846 40.4465 24.8806 39.2349L20.2389 40.8936L15.8717 34.0094L19.353 30.5299C18.8232 28.8308 18.517 27.07 18.4421 25.2919L14 23.1843L15.7719 15.24H20.6756C21.4957 13.6631 22.5239 12.2034 23.7326 10.9L22.098 6.23568L28.9733 1.8707L32.467 5.35023C34.1665 4.81862 35.9284 4.51252 37.7077 4.4398L39.8164 0L47.7647 1.7834V6.69712L47.7772 6.64722ZM40.7647 16.0007C39.0795 15.6238 37.3202 15.7546 35.7093 16.3767C34.0984 16.9988 32.7082 18.0842 31.7143 19.4957C30.7204 20.9073 30.1675 22.5817 30.1254 24.3072C30.0833 26.0328 30.5539 27.732 31.4778 29.1903C32.4017 30.6486 33.7374 31.8005 35.316 32.5003C36.8946 33.2001 38.6454 33.4164 40.347 33.122C42.0487 32.8276 43.6248 32.0356 44.8762 30.8461C46.1277 29.6567 46.9982 28.1231 47.3779 26.4393C47.6303 25.3198 47.6594 24.1616 47.4636 23.0309C47.2678 21.9002 46.8508 20.8191 46.2366 19.8496C45.6224 18.8801 44.8229 18.0412 43.884 17.3807C42.9451 16.7203 41.8851 16.2514 40.7647 16.0007Z" fill="#FFD5D7"/>
<path opacity="0.8" fill-rule="evenodd" clip-rule="evenodd" d="M73.9812 57.8681C75.8465 58.842 77.5747 60.0581 79.121 61.4849L84.6152 59.5363L89.7698 67.6701L85.6639 71.8035C86.2934 73.814 86.6559 75.8986 86.742 78.0036L92 80.4983L89.888 89.8575H84.0688C83.0893 91.7223 81.8676 93.4497 80.4354 94.9947L82.3998 100.486L74.247 105.638L70.1115 101.667C68.1047 102.295 66.0242 102.657 63.9231 102.745L61.4271 108L52.0189 105.889V100.073C50.1512 99.0968 48.4226 97.8755 46.879 96.4413L41.3848 98.4047L36.2154 90.256L40.3361 86.1374C39.7091 84.1263 39.3466 82.0421 39.258 79.9374L34 77.4426L36.0973 68.0392H41.9017C42.8724 66.1726 44.0895 64.4448 45.5202 62.902L43.5854 57.381L51.7234 52.2143L55.8589 56.3329C57.8705 55.7037 59.9561 55.3413 62.0621 55.2553L64.5582 50L73.9664 52.111V57.9272L73.9812 57.8681ZM65.6807 68.9397C63.6859 68.4935 61.6035 68.6483 59.6967 69.3847C57.79 70.121 56.1444 71.4057 54.968 73.0766C53.7915 74.7474 53.137 76.7293 53.0872 78.7718C53.0374 80.8143 53.5944 82.8257 54.688 84.5518C55.7816 86.278 57.3626 87.6414 59.2312 88.4697C61.0998 89.298 63.1721 89.5541 65.1863 89.2056C67.2005 88.8571 69.0661 87.9197 70.5474 86.5118C72.0287 85.1038 73.0591 83.2886 73.5085 81.2955C73.8073 79.9704 73.8418 78.5994 73.61 77.261C73.3782 75.9226 72.8846 74.6431 72.1576 73.4955C71.4306 72.3479 70.4843 71.3549 69.3729 70.5731C68.2615 69.7914 67.0069 69.2363 65.6807 68.9397Z" fill="#F3A8AD"/>
<path opacity="0.4" fill-rule="evenodd" clip-rule="evenodd" d="M19.3154 52.9921C20.2103 53.479 21.0387 54.086 21.7791 54.7975L24.4523 53.8185L26.916 57.8996L24.9204 59.9719C25.2279 60.9775 25.406 62.0205 25.4501 63.0741L28 64.3454L27.1008 69.0495H24.2675C23.7938 69.9719 23.2058 70.8266 22.5183 71.5923L23.4668 74.3384L19.5002 76.8812L17.5046 74.8216C16.5253 75.1338 15.5108 75.3133 14.4866 75.3555L13.2547 78L8.68456 76.9321V74.0206C7.7879 73.5316 6.9592 72.9201 6.22086 72.2025L3.54773 73.1815L1.08403 69.1004L3.07963 67.028C2.7761 66.0219 2.60215 64.9789 2.56226 63.9259L0 62.6545L1.02244 57.9377H3.69556C4.17529 57.0161 4.76728 56.1616 5.45711 55.395L4.50858 52.6488L8.46282 50.1061L10.4707 52.1784C11.4436 51.8548 12.455 51.6709 13.4765 51.6317L14.7083 49L19.2785 50.0552V52.9794L19.3154 52.9921ZM15.2873 58.5353C14.3173 58.3085 13.3038 58.3837 12.3753 58.7517C11.4468 59.1196 10.6449 59.7636 10.0712 60.6022C9.49745 61.4407 9.17768 62.4361 9.15237 63.4622C9.12706 64.4884 9.39733 65.4993 9.92897 66.3669C10.4606 67.2344 11.2297 67.9197 12.1389 68.3359C13.0481 68.7521 14.0565 68.8806 15.0365 68.705C16.0164 68.5294 16.9238 68.0577 17.6439 67.3495C18.3639 66.6413 18.8642 65.7286 19.0814 64.7269C19.3719 63.3867 19.1357 61.9823 18.4244 60.8216C17.7132 59.6609 16.585 58.8388 15.2873 58.5353Z" fill="#EB9595"/>
</svg>
