<svg width="21" height="21" viewBox="0 0 21 21"  xmlns="http://www.w3.org/2000/svg">
<g clip-path="url(#clip0)">
<path d="M18.6924 12.5795L18.6811 12.569C18.5018 12.4031 17.9525 11.8676 17.7673 11.6335C17.5499 11.3415 17.6001 11.1502 17.763 10.8635C17.9689 10.5012 18.3814 9.9454 18.818 9.35689C20.2164 7.47258 21.1192 6.16811 20.9334 5.24153L20.8333 4.74661L15.669 4.74886C15.6509 4.79766 15.3814 5.98382 14.2441 8.00362C13.4195 9.46814 12.8786 9.92822 12.6881 10.0095L12.6586 10.0005C12.5966 9.92373 12.4883 9.71664 12.4438 9.18288C12.3973 8.62375 12.4385 7.94679 12.4784 7.29215C12.525 6.52449 12.5652 5.8615 12.4689 5.38713L12.3121 4.61433C12.1225 4.58399 11.4286 4.31575 9.4953 4.29536C7.8215 4.27818 7.3298 4.52042 7.08835 4.73393L6.28966 5.4401L7.29919 5.78043C7.6834 5.90998 7.81093 6.05943 7.91555 6.80028C7.9838 7.28316 8.01953 8.09464 7.94583 8.81912C7.83993 9.85791 7.58598 10.0512 7.57285 10.0615C7.52911 10.0465 7.1582 9.88392 6.51429 8.51989C6.0676 7.57388 5.67603 6.45482 5.38988 5.63772C5.0624 4.70198 5.12136 4.9012 4.95521 4.4591L-0.0410156 4.45894L0.282303 5.29691C1.63021 8.79375 2.86693 11.5245 4.52198 13.4859C6.35055 15.6529 8.62307 16.7875 11.6842 16.7875H12.2994V16.1711C12.2994 15.5948 12.347 15.1798 12.4491 14.8652C12.5114 14.6735 12.5942 14.5151 12.6812 14.3489C12.8104 14.1043 12.9366 13.9994 13.0055 13.9839C13.068 13.9696 13.1779 14.0155 13.2997 14.1065C13.6493 14.3677 13.9268 14.7109 14.2206 15.0744C14.6445 15.5988 15.0829 16.1409 15.7784 16.4959C16.1584 16.6898 16.8551 16.7877 17.2385 16.7877C17.3399 16.7877 20.9545 16.7875 20.959 16.7875L20.9326 16.1457C20.8932 15.1861 20.1394 13.9861 18.6924 12.5795ZM17.2623 15.5547H17.2524C16.988 15.559 16.4835 15.4722 16.3367 15.3973C15.8744 15.1614 15.5512 14.7615 15.1768 14.2985C14.8482 13.8919 14.5083 13.4715 14.0352 13.1181C13.6526 12.8322 13.3051 12.7486 13.0292 12.7486C12.919 12.7486 12.82 12.7619 12.7351 12.7812C12.4148 12.8534 11.9567 13.0843 11.5925 13.7744C11.4898 13.9707 11.3734 14.193 11.279 14.4839C11.1801 14.7883 11.1186 15.1265 11.0893 15.538C8.78249 15.4067 6.98244 14.4923 5.46166 12.69C4.04774 11.0142 2.93535 8.6703 1.75727 5.69133C1.8425 5.69133 3.97836 5.69166 4.10445 5.69166C4.14307 5.80033 4.18472 5.91945 4.22894 6.04563C4.53736 6.9271 4.95986 8.13413 5.45765 9.16345C6.17046 10.6374 6.82142 11.2948 7.5682 11.2948C7.94103 11.2948 8.2754 11.1365 8.53511 10.8368C8.90538 10.4097 9.12039 9.7046 9.19248 8.68122C9.24936 7.87423 9.19649 7.07045 9.13401 6.62755C9.08242 6.26314 9.00888 5.8806 8.82943 5.53787C9.59415 5.50335 10.6181 5.55793 11.2668 5.6512C11.3258 5.9729 11.2873 6.60524 11.2502 7.21702C11.1603 8.69486 11.0675 10.2199 11.8483 10.9335C11.9856 11.059 12.1312 11.1263 12.1354 11.129L12.5327 11.2512C12.686 11.2038 13.5741 11.6552 15.2558 8.71477C15.7946 7.77262 16.2962 6.68695 16.5663 5.97788C17.1928 5.9766 19.327 5.97901 19.5778 5.97933C19.2226 6.76256 18.3808 7.87969 17.8306 8.62118C17.3509 9.26748 16.9368 9.82564 16.6937 10.2533C16.2422 11.0478 16.3182 11.7559 16.7884 12.3805L16.7958 12.3901C17.0582 12.7248 17.7063 13.3445 17.8407 13.4694C18.8145 14.4167 19.2838 15.0972 19.5071 15.5545H17.2623V15.5547Z" fill="white"/>
</g>
<defs>
<clipPath id="clip0">
<rect width="21" height="21" fill="white"/>
</clipPath>
</defs>
</svg>
