<svg width="21" height="21" viewBox="0 0 21 21" fill="none" xmlns="http://www.w3.org/2000/svg">
<g clip-path="url(#clip0)">
<path d="M5.07905 19.5015C6.70157 20.4779 8.55672 20.9925 10.4628 20.9925C16.2388 20.9925 21 16.2792 21 10.4962C21 4.71984 16.2456 0 10.4628 0C4.69773 0 0.00753022 4.70863 0.00753022 10.4962C0.00753022 12.4277 0.522308 14.297 1.49851 15.9208L0 21L5.07905 19.5015ZM1.23768 10.4962C1.23768 5.38683 5.37609 1.22999 10.4628 1.22999C15.5947 1.22999 19.77 5.38683 19.77 10.4962C19.77 15.6056 15.5947 19.7623 10.4628 19.7623C8.69691 19.7623 6.98083 19.2621 5.50058 18.3156L5.2641 18.1645L1.81927 19.1809L2.83553 15.7359L2.68444 15.4996C1.73788 14.019 1.23768 12.289 1.23768 10.4962Z" fill="white"/>
<path d="M5.11169 8.56218C5.31485 9.62906 5.9179 11.6811 7.67373 13.4369C9.42955 15.1928 11.4816 15.796 12.5487 15.9991C13.7705 16.2318 15.5635 16.2669 16.4397 15.3906L16.9282 14.9021C17.1748 14.6556 17.3106 14.3276 17.3106 13.9788C17.3106 13.63 17.1748 13.3022 16.9282 13.0556L14.9747 11.1021C14.7279 10.8554 14.4001 10.7197 14.0513 10.7197C13.7025 10.7197 13.3747 10.8554 13.128 11.1021L12.6397 11.5904C12.3413 11.8888 11.7782 11.8901 11.4776 11.5941L9.52904 9.56386C9.52616 9.56081 9.52327 9.55777 9.52023 9.55488C9.22142 9.25608 9.22142 8.76982 9.52023 8.47101L10.0086 7.98267C10.519 7.47222 10.519 6.6463 10.0086 6.13601L8.05504 4.18248C7.54603 3.67347 6.71771 3.67347 6.20854 4.18248L5.7202 4.67098V4.67082C5.02085 5.37033 4.78773 6.86131 5.11169 8.56218ZM6.59002 5.5408C7.10271 5.0398 7.07531 5.03019 7.13187 5.03019C7.15126 5.03019 7.17064 5.03756 7.18538 5.0523C9.24385 7.12182 9.16118 7.00022 9.16118 7.0595C9.16118 7.08017 9.15365 7.09827 9.13907 7.11301L8.65057 7.60135C7.87271 8.37921 7.86967 9.63836 8.6456 10.4197L10.5953 12.4513C10.5983 12.4542 10.6012 12.4572 10.6043 12.4603C11.382 13.238 12.7292 13.2405 13.5095 12.4603L13.9978 11.9719C14.0273 11.9424 14.0754 11.9424 14.1048 11.9719C16.1633 14.0413 16.0806 13.9197 16.0806 13.979C16.0806 13.9998 16.0731 14.0177 16.0585 14.0325L15.57 14.5208C15.2353 14.8555 14.1693 15.0558 12.7787 14.7909C11.8508 14.6141 10.0664 14.0902 8.54354 12.5673C7.02068 11.0444 6.49677 9.26008 6.32005 8.33211C6.05505 6.94158 6.25532 5.87533 6.59002 5.5408Z" fill="white"/>
</g>
<defs>
<clipPath id="clip0">
<rect width="21" height="21" fill="white"/>
</clipPath>
</defs>
</svg>
