<svg width="21" height="21" viewBox="0 0 21 21" fill="none" xmlns="http://www.w3.org/2000/svg">
<g clip-path="url(#clip0)">
<path d="M17.9238 3.05176e-05H3.07617C1.37995 3.05176e-05 0 1.37998 0 3.0762V17.9239C0 19.6201 1.37995 21 3.07617 21H17.9238C19.62 21 21 19.6201 21 17.9239V3.0762C21 1.37998 19.62 3.05176e-05 17.9238 3.05176e-05ZM19.7695 17.9239C19.7695 18.9416 18.9415 19.7696 17.9238 19.7696H3.07617C2.05847 19.7696 1.23047 18.9416 1.23047 17.9239V3.0762C1.23047 2.0585 2.05847 1.2305 3.07617 1.2305H17.9238C18.9415 1.2305 19.7695 2.0585 19.7695 3.0762V17.9239Z" fill="white"/>
<path d="M9.88477 8.65433C9.88477 7.29729 8.78087 6.19339 7.42383 6.19339H3.73242V14.8067H7.42383C8.78087 14.8067 9.88477 13.7028 9.88477 12.3457C9.88477 11.6113 9.56097 10.9514 9.04891 10.5C9.56097 10.0487 9.88477 9.38876 9.88477 8.65433ZM8.6543 12.3457C8.6543 13.0243 8.10235 13.5762 7.42383 13.5762H4.96289V11.1153H7.42383C8.10235 11.1153 8.6543 11.6672 8.6543 12.3457ZM4.96289 9.8848V7.42386H7.42383C8.10235 7.42386 8.6543 7.97581 8.6543 8.65433C8.6543 9.33285 8.10235 9.8848 7.42383 9.8848H4.96289Z" fill="white"/>
<path d="M14.1914 8.65433C12.4952 8.65433 11.1152 10.0343 11.1152 11.7305C11.1152 13.4267 12.4952 14.8067 14.1914 14.8067C15.2862 14.8067 16.3071 14.2176 16.8557 13.2691L15.7905 12.6529C15.4611 13.2224 14.8483 13.5762 14.1914 13.5762C13.3892 13.5762 12.7051 13.0619 12.4511 12.3457H17.2676V11.7305C17.2676 10.0343 15.8876 8.65433 14.1914 8.65433ZM12.4511 11.1153C12.7051 10.3991 13.3892 9.8848 14.1914 9.8848C14.9936 9.8848 15.6777 10.3991 15.9317 11.1153H12.4511Z" fill="white"/>
<path d="M11.7305 6.19339H16.6523V7.42386H11.7305V6.19339Z" fill="white"/>
</g>
<defs>
<clipPath id="clip0">
<rect width="21" height="21" fill="white"/>
</clipPath>
</defs>
</svg>
