<svg width="57" height="57" viewBox="0 0 57 57" fill="none" xmlns="http://www.w3.org/2000/svg">
<path d="M2.98358 15.6963V41.3036L15.508 34.0725V22.9272L2.98358 15.6963Z" fill="#FF4F5A"/>
<path d="M18.8478 24.8556V34.0726L26.8301 38.6812V29.4641L18.8478 24.8556Z" fill="white"/>
<path d="M17.1778 36.965L4.65338 44.1961L26.8301 57V42.5377L17.1778 36.965Z" fill="#FF4F5A"/>
<path d="M30.1699 29.4641V38.6812L38.1521 34.0726V24.8556L30.1699 29.4641Z" fill="white"/>
<path d="M40.7143 23.5167V34.662L53.2387 41.8931V16.2857L40.7143 23.5167Z" fill="#FF4F5A"/>
<path d="M39.8221 36.965L30.1699 42.5377V57L52.3466 44.1961L39.8221 36.965Z" fill="#FF4F5A"/>
<path d="M30.1699 0V14.4623L39.8221 20.0349L52.3465 12.804L30.1699 0Z" fill="#FF4F5A"/>
<path d="M4.6535 12.804L17.1779 20.0349L26.8301 14.4623V0L4.6535 12.804Z" fill="#FF4F5A"/>
<path d="M28.5 17.3547L20.5178 21.9632L28.5 26.5718L36.4822 21.9632L28.5 17.3547Z" fill="white"/>
</svg>
